<svg xmlns="http://www.w3.org/2000/svg" viewBox="0 0 100 100" width="100" height="100">
  <g transform="translate(50, 50)">
    <!-- Hexagon container -->
    <polygon points="-40,-23.09 -40,23.09 0,46.19 40,23.09 40,-23.09 0,-46.19" 
             fill="#1B5E20" stroke="none"/>
    
    <!-- Inner 3D cube structure -->
    <g transform="scale(0.6)">
      <!-- Back faces -->
      <polygon points="-20,-35 -20,-5 10,-5 10,-35" fill="#E8F5E9" opacity="0.9"/>
      <polygon points="10,-35 10,-5 30,5 30,-25" fill="#C8E6C9" opacity="0.9"/>
      
      <!-- Middle layer -->
      <polygon points="-15,-25 -15,5 15,5 15,-25" fill="#E8F5E9" opacity="0.8" transform="translate(0, 10)"/>
      <polygon points="15,-25 15,5 35,15 35,-15" fill="#C8E6C9" opacity="0.8" transform="translate(0, 10)"/>
      
      <!-- Front faces -->
      <polygon points="-10,-15 -10,15 20,15 20,-15" fill="#E8F5E9" opacity="0.7" transform="translate(0, 20)"/>
      <polygon points="20,-15 20,15 40,25 40,-5" fill="#C8E6C9" opacity="0.7" transform="translate(0, 20)"/>
      
      <!-- Top connecting lines -->
      <line x1="-20" y1="-35" x2="-10" y2="-15" stroke="#1B5E20" stroke-width="2" transform="translate(0, 20)"/>
      <line x1="10" y1="-35" x2="20" y2="-15" stroke="#1B5E20" stroke-width="2" transform="translate(0, 20)"/>
      <line x1="30" y1="-25" x2="40" y2="-5" stroke="#1B5E20" stroke-width="2" transform="translate(0, 20)"/>
    </g>
  </g>
</svg>